<svg id="Layer_1" data-name="Layer 1" xmlns="http://www.w3.org/2000/svg" viewBox="0 0 245.56 65.52">
  <title>Logo</title>
  <g>
    <path d="M-271.36,255.27h-33.1v64.42h20V295.78h10.9q12,0,17.91-5.49t5.86-15.25q0-9.5-5.38-14.63T-271.36,255.27Zm-.14,25.46c-1.55,1.34-4.24,2-8.08,2h-4.88V268.36h5.67c3.72,0,6.25.71,7.6,2.11a7.15,7.15,0,0,1,2,5.14A6.42,6.42,0,0,1-271.5,280.73Z" transform="translate(304.46 -255.27)"/>
    <path d="M-198.55,301.72q-3.51,4.17-9.93,4.17a12.26,12.26,0,0,1-9.86-4.26q-3.63-4.26-3.63-14t3.65-14.11a11.63,11.63,0,0,1,5.23-3.56l-9.68-13.5A28.08,28.08,0,0,0-233.09,263q-8.79,8.79-8.79,24.56,0,11.3,4.44,18.81a27.21,27.21,0,0,0,11.58,11q7.14,3.46,18,3.47,10.73,0,17.91-4a27.72,27.72,0,0,0,6.68-5.2l-12.38-17.25A15.47,15.47,0,0,1-198.55,301.72Z" transform="translate(304.46 -255.27)"/>
    <path d="M-140.65,319.69h20.85L-144,255.27h-21.71l-9.81,26.07,19.88,27.72h11.78Zm-21.5-24.57,7-23.15,7.11,23.15Z" transform="translate(304.46 -255.27)"/>
    <path d="M-64.28,260.41q-5.37-5.15-16.19-5.14h-33.09v64.42h20V295.78h10.9q12,0,17.91-5.49T-58.89,275Q-58.89,265.54-64.28,260.41ZM-80.6,280.73c-1.55,1.34-4.25,2-8.09,2h-4.88V268.36h5.67c3.72,0,6.26.71,7.61,2.11a7.19,7.19,0,0,1,2,5.14A6.45,6.45,0,0,1-80.6,280.73Z" transform="translate(304.46 -255.27)"/>
  </g>
</svg>
